<svg width="12" height="15" viewBox="0 0 12 15" fill="none" xmlns="http://www.w3.org/2000/svg">
<path d="M1.40835 14.2766C1.42652 14.6809 1.78362 15 2.2179 15H9.78211C10.2164 15 10.5735 14.6809 10.5917 14.2766L11.1318 3.65259H0.868164L1.40835 14.2766ZM7.71112 6.29141C7.71112 6.12213 7.85845 5.98483 8.04024 5.98483H8.56662C8.74829 5.98483 8.89574 6.12209 8.89574 6.29141L9.5 4.5L2.2179 4.15814L1.5 9.5L2.5 14L10.5 13L8.89574 12.3612C8.89574 12.5305 8.74841 12.6678 8.56662 12.6678H8.04024C7.85853 12.6678 7.71112 12.5306 7.71112 12.3612V6.29141ZM5.40773 6.29141C5.40773 6.12213 5.55507 5.98483 5.73681 5.98483H6.2632C6.44486 5.98483 6.59228 6.12209 6.59228 6.29141V12.3612C6.59228 12.5305 6.44498 12.6678 6.2632 12.6678H5.73681C5.55511 12.6678 5.40773 12.5306 5.40773 12.3612V6.29141ZM3.10427 6.29141C3.10427 6.12213 3.2516 5.98483 3.43335 5.98483H3.95977C4.14148 5.98483 4.28885 6.12209 4.28885 6.29141V9.5V12.3612C4.28885 12.5305 4.14152 12.6678 3.95977 12.6678H3.43335C3.25164 12.6678 3.10427 12.5306 3.10427 12.3612V6.29141Z" fill="white"/>
<path d="M11.4915 0.772725H8.00192V0.158085C8.00192 0.0707985 7.92596 0 7.83224 0H4.16776C4.07407 0 3.99812 0.0707985 3.99812 0.158085V0.772688H0.508456C0.227623 0.772688 0 0.98479 0 1.24643V2.73463H12V1.24647C12 0.984827 11.7724 0.772725 11.4915 0.772725Z" fill="white"/>
</svg>
